<svg xmlns="http://www.w3.org/2000/svg" xmlns:xlink="http://www.w3.org/1999/xlink" width="639.777" height="384.014" viewBox="0 0 639.777 384.014">
  <defs>
    <linearGradient id="linear-gradient" x1="0.5" x2="0.5" y2="1" gradientUnits="objectBoundingBox">
      <stop offset="0" stop-color="#56ccf2"/>
      <stop offset="1" stop-color="#2f80ed"/>
    </linearGradient>
  </defs>
  <path id="signature-solid" d="M623.2,192c-51.8,3.5-125.7,54.7-163.1,71.5-29.1,13.1-54.2,24.4-76.1,24.4-22.6,0-26-16.2-21.3-51.9,1.1-8,11.7-79.2-42.7-76.1-25.1,1.5-64.3,24.8-169.5,126L192,182.2C222.4,106.3,138.8,30.7,62.3,79.4L7.4,116.3a16.082,16.082,0,0,0-4.9,22.1l17.2,27a15.906,15.906,0,0,0,22.1,4.9l58-38.9c18.4-11.7,40.7,7.2,32.7,27.1L34.3,404.1C27.5,421,37,448,64,448a31.628,31.628,0,0,0,22.6-9.4c42.2-42.2,154.7-150.7,211.2-195.8-2.2,28.5-2.1,58.9,20.6,83.8,15.3,16.8,37.3,25.3,65.5,25.3,35.6,0,68-14.6,102.3-30,33-14.8,99-62.6,138.4-65.8,8.5-.7,15.2-7.3,15.2-15.8V208.2c.2-9.1-7.5-16.8-16.6-16.2Z" transform="translate(-0.027 -63.986)" fill="url(#linear-gradient)"/>
</svg>
